<?xml version="1.0" encoding="UTF-8"?>
<svg id="_图层_1" data-name="图层 1" xmlns="http://www.w3.org/2000/svg" viewBox="0 0 811.54 807.5">
  <defs>
    <style>
      .cls-1 {
        fill: #e94945;
      }

      .cls-2 {
        fill: #106fa1;
      }

      .cls-3 {
        fill: #f5cd1f;
      }

      .cls-4 {
        fill: #fff;
      }
    </style>
  </defs>
  <path class="cls-2" d="M481.27,6.06l30.28,6.86,24.63,8.88,19.78,10.09,15.34,10.9,11.3,11.3,8.48,11.3,5.25,11.3,3.23,10.09,1.21,8.88.81,6.86-.4,4.44v179.67l-1.61,20.99-4.44,18.57-7.27,15.34-8.88,12.92-10.09,10.5-11.3,8.48-11.71,6.46-11.71,4.85-11.3,3.23-10.09,2.42-8.88,1.21-7.27.81h-199.45l-23.42,1.62-19.78,4.85-16.96,7.27-13.73,9.29-10.9,10.9-8.88,11.71-6.86,12.11-4.84,12.52-3.23,11.71-2.42,10.9-1.21,8.88-.81,7.27v102.96h-75.5l-7.27-.81-9.29-2.42-10.9-4.04-11.71-6.06-12.11-8.88-12.11-12.11-11.71-15.34-10.9-19.78-9.29-24.63-6.86-29.47-4.84-36.74-1.62-41.59,2.02-41.18,5.25-35.13,8.07-29.07,10.9-23.82,12.11-19.38,13.32-14.94,14.13-10.9,14.13-8.07,13.32-5.25,12.11-3.23,10.9-1.62,8.08-.4h5.25l2.02.4h274.55v-27.86h-196.22l-.4-92.46-.81-12.52,1.62-11.3,3.63-10.5,5.65-9.29,8.48-8.88,10.5-7.67,12.92-6.86,14.94-6.06,16.96-4.85,19.38-4.04,21.8-3.63,23.82-2.02,25.84-1.21,28.26-.81,42.8,1.61s35.93,4.44,35.93,4.44ZM269.7,72.68l-7.67,11.3-2.83,13.73,2.83,13.73,7.67,11.3,11.3,7.27,13.73,3.23,13.73-3.23,11.3-7.27,7.67-11.3,2.83-13.73-3.23-14.13-7.67-10.9-11.3-7.27-13.73-3.23-13.73,3.23s-10.9,7.27-10.9,7.27Z"/>
  <path class="cls-3" d="M709.79,205.51l9.29,2.02,10.9,4.04,11.71,6.06,12.11,8.88,12.11,11.71,11.71,15.75,10.9,19.78,9.29,24.63,7.27,29.47,4.85,35.13,1.61,41.18-2.02,41.18-5.25,35.13-8.07,29.07-10.9,23.82-12.11,19.38-13.32,15.34-14.13,11.3-14.13,8.07-13.32,5.25-12.11,3.23-10.9,1.61-8.07.81-5.25-.4h-276.57v27.45h196.22l.4,92.86.81,12.11-1.61,11.3-3.63,10.5-5.65,9.69-8.48,8.48-10.5,8.07-12.92,6.86-14.94,5.65-16.96,4.84-19.38,4.44-21.4,3.23-23.82,2.42-25.84,1.21-28.26.4-42.8-1.21-35.93-4.84-30.28-6.86-24.63-8.48-19.78-10.09-15.34-11.3-11.3-11.3-8.48-11.3-5.25-11.3-3.23-10.09-1.21-8.48-.81-6.86.4-4.44v-179.67l1.62-21.4,4.44-18.17,7.27-15.34,8.88-12.92,10.09-10.9,11.3-8.07,11.71-6.86,11.71-4.84,10.9-3.23,10.09-2.02,8.88-1.21,7.27-.81,4.44-.4h196.63l23.42-1.61,19.78-4.84,16.96-6.86,13.73-9.29,11.3-10.9,8.88-11.71,6.86-12.11,4.84-12.11,3.23-11.71,2.42-10.9,1.21-9.29.81-7.27v-102.15h70.25l4.84.4s5.25.81,5.25.81ZM492.17,685.16l-7.67,11.3-2.83,13.73,2.83,13.73,7.67,11.3,11.3,7.67,13.73,2.83,13.73-2.83,11.3-7.67,7.67-11.3,2.83-13.73-2.83-13.73-7.67-11.3-11.3-7.67-13.73-2.83-13.73,2.83-11.3,7.67Z"/>
  <path class="cls-4" d="M392.54,735.97c2.15,0,3.94-1.73,3.94-3.94v-86.13c0-5.04-4.15-9.19-9.19-9.19h-92.43c-7.98,0-14.43,6.51-14.43,14.43v118.1c.01,7.98,6.49,14.45,14.47,14.44.07,0,.15,0,.22,0h91.85c5.09,0,9.19-4.09,9.19-9.19v-18.37c0-4.46-3.25-8.24-7.56-8.98-.52-.16-1.05-.21-1.63-.21h-91.85c-2.47,0-4.78.63-6.82,1.73v-97.52c0-3.62,2.94-6.56,6.56-6.56h6.82v45.35c0,2.62,1.52,4.93,3.88,5.98.89.42,1.78.58,2.73.58,1.57,0,3.1-.58,4.3-1.63l4.83-4.3,4.83,4.3c1.94,1.73,4.67,2.15,7.03,1.05,2.41-1.05,3.88-3.36,3.88-5.98v-45.35h54.11c.73,0,1.31.63,1.31,1.31v86.13c0,2.2,1.78,3.94,3.94,3.94ZM288.56,761.37c0-3.62,2.94-6.56,6.56-6.56h91.85c.73,0,1.31.63,1.31,1.31v18.37c0,.73-.58,1.31-1.31,1.31h-91.85c-3.62,0-6.56-2.94-6.56-6.56v-7.87ZM325.3,687l-3.52-3.1c-2.47-2.2-6.19-2.2-8.71,0l-3.52,3.1v-42.41h15.75v42.41Z"/>
  <path class="cls-4" d="M565.03,531.67c2.15,0,3.94-1.73,3.94-3.94v-86.13c0-5.04-4.15-9.19-9.19-9.19h-92.43c-7.98,0-14.43,6.51-14.43,14.43v118.1c.01,7.98,6.49,14.45,14.47,14.44.07,0,.15,0,.22,0h91.85c5.09,0,9.19-4.09,9.19-9.19v-18.37c0-4.46-3.25-8.24-7.56-8.98-.52-.16-1.05-.21-1.63-.21h-91.85c-2.47,0-4.78.63-6.82,1.73v-97.52c0-3.62,2.94-6.56,6.56-6.56h6.82v45.35c0,2.62,1.52,4.93,3.88,5.98.89.42,1.78.58,2.73.58,1.57,0,3.1-.58,4.3-1.63l4.83-4.3,4.83,4.3c1.94,1.73,4.67,2.15,7.03,1.05,2.41-1.05,3.88-3.36,3.88-5.98v-45.35h54.11c.73,0,1.31.63,1.31,1.31v86.13c0,2.2,1.78,3.94,3.94,3.94ZM461.06,557.07c0-3.62,2.94-6.56,6.56-6.56h91.85c.73,0,1.31.63,1.31,1.31v18.37c0,.73-.58,1.31-1.31,1.31h-91.85c-3.62,0-6.56-2.94-6.56-6.56v-7.87ZM497.8,482.7l-3.52-3.1c-2.47-2.2-6.19-2.2-8.71,0l-3.52,3.1v-42.41h15.75v42.41Z"/>
  <path class="cls-4" d="M768.78,362.78c2.15,0,3.94-1.73,3.94-3.94v-86.13c0-5.04-4.15-9.19-9.19-9.19h-92.43c-7.98,0-14.43,6.51-14.43,14.43v118.1c.01,7.98,6.49,14.45,14.47,14.44.07,0,.15,0,.22,0h91.85c5.09,0,9.19-4.09,9.19-9.19v-18.37c0-4.46-3.25-8.24-7.56-8.98-.52-.16-1.05-.21-1.63-.21h-91.85c-2.47,0-4.78.63-6.82,1.73v-97.52c0-3.62,2.94-6.56,6.56-6.56h6.82v45.35c0,2.62,1.52,4.93,3.88,5.98.89.42,1.78.58,2.73.58,1.57,0,3.1-.58,4.3-1.63l4.83-4.3,4.83,4.3c1.94,1.73,4.67,2.15,7.03,1.05,2.41-1.05,3.88-3.36,3.88-5.98v-45.35h54.11c.73,0,1.31.63,1.31,1.31v86.13c0,2.2,1.78,3.94,3.94,3.94ZM664.81,388.18c0-3.62,2.94-6.56,6.56-6.56h91.85c.73,0,1.31.63,1.31,1.31v18.37c0,.73-.58,1.31-1.31,1.31h-91.85c-3.62,0-6.56-2.94-6.56-6.56v-7.87ZM701.55,313.81l-3.52-3.1c-2.47-2.2-6.19-2.2-8.71,0l-3.52,3.1v-42.41h15.75v42.41Z"/>
  <g>
    <g>
      <path class="cls-4" d="M492.4,136.96h-92.24c-2.04,0-3.69-1.65-3.69-3.69V41.03c0-2.04,1.65-3.69,3.69-3.69h92.24c2.04,0,3.69,1.65,3.69,3.69v92.24c0,2.04-1.65,3.69-3.69,3.69ZM403.85,129.58h84.86V44.72h-84.86v84.86Z"/>
      <path class="cls-4" d="M430.91,106.21h-30.75c-2.04,0-3.69-1.65-3.69-3.69s1.65-3.69,3.69-3.69h27.06v-23.37h-27.06c-2.04,0-3.69-1.65-3.69-3.69s1.65-3.69,3.69-3.69h30.75c2.04,0,3.69,1.65,3.69,3.69v30.75c0,2.04-1.65,3.69-3.69,3.69Z"/>
      <path class="cls-4" d="M492.4,75.47h-30.75c-2.04,0-3.69-1.65-3.69-3.69s1.65-3.69,3.69-3.69h30.75c2.04,0,3.69,1.65,3.69,3.69s-1.65,3.69-3.69,3.69Z"/>
      <path class="cls-4" d="M492.4,106.21h-61.49c-2.04,0-3.69-1.65-3.69-3.69s1.65-3.69,3.69-3.69h61.49c2.04,0,3.69,1.65,3.69,3.69s-1.65,3.69-3.69,3.69Z"/>
      <path class="cls-4" d="M430.91,75.47c-2.04,0-3.69-1.65-3.69-3.69v-30.75c0-2.04,1.65-3.69,3.69-3.69s3.69,1.65,3.69,3.69v30.75c0,2.04-1.65,3.69-3.69,3.69Z"/>
    </g>
    <circle class="cls-4" cx="415.54" cy="56.4" r="6.15"/>
    <circle class="cls-1" cx="477.03" cy="117.9" r="6.15"/>
  </g>
  <g>
    <g>
      <path class="cls-4" d="M413.36,342.1h-92.24c-2.04,0-3.69-1.65-3.69-3.69v-92.24c0-2.04,1.65-3.69,3.69-3.69h92.24c2.04,0,3.69,1.65,3.69,3.69v92.24c0,2.04-1.65,3.69-3.69,3.69ZM324.81,334.72h84.86v-84.86h-84.86v84.86Z"/>
      <path class="cls-4" d="M351.86,311.35h-30.75c-2.04,0-3.69-1.65-3.69-3.69s1.65-3.69,3.69-3.69h27.06v-23.37h-27.06c-2.04,0-3.69-1.65-3.69-3.69s1.65-3.69,3.69-3.69h30.75c2.04,0,3.69,1.65,3.69,3.69v30.75c0,2.04-1.65,3.69-3.69,3.69Z"/>
      <path class="cls-4" d="M413.36,280.6h-30.75c-2.04,0-3.69-1.65-3.69-3.69s1.65-3.69,3.69-3.69h30.75c2.04,0,3.69,1.65,3.69,3.69s-1.65,3.69-3.69,3.69Z"/>
      <path class="cls-4" d="M413.36,311.35h-61.49c-2.04,0-3.69-1.65-3.69-3.69s1.65-3.69,3.69-3.69h61.49c2.04,0,3.69,1.65,3.69,3.69s-1.65,3.69-3.69,3.69Z"/>
      <path class="cls-4" d="M351.86,280.6c-2.04,0-3.69-1.65-3.69-3.69v-30.75c0-2.04,1.65-3.69,3.69-3.69s3.69,1.65,3.69,3.69v30.75c0,2.04-1.65,3.69-3.69,3.69Z"/>
    </g>
    <circle class="cls-4" cx="336.49" cy="261.54" r="6.15"/>
    <circle class="cls-1" cx="397.98" cy="323.03" r="6.15"/>
  </g>
  <g>
    <g>
      <path class="cls-4" d="M148.64,482.22H56.4c-2.04,0-3.69-1.65-3.69-3.69v-92.24c0-2.04,1.65-3.69,3.69-3.69h92.24c2.04,0,3.69,1.65,3.69,3.69v92.24c0,2.04-1.65,3.69-3.69,3.69ZM60.09,474.85h84.86v-84.86H60.09v84.86Z"/>
      <path class="cls-4" d="M87.15,451.48h-30.75c-2.04,0-3.69-1.65-3.69-3.69s1.65-3.69,3.69-3.69h27.06v-23.37h-27.06c-2.04,0-3.69-1.65-3.69-3.69s1.65-3.69,3.69-3.69h30.75c2.04,0,3.69,1.65,3.69,3.69v30.75c0,2.04-1.65,3.69-3.69,3.69Z"/>
      <path class="cls-4" d="M148.64,420.73h-30.75c-2.04,0-3.69-1.65-3.69-3.69s1.65-3.69,3.69-3.69h30.75c2.04,0,3.69,1.65,3.69,3.69s-1.65,3.69-3.69,3.69Z"/>
      <path class="cls-4" d="M148.64,451.48h-61.49c-2.04,0-3.69-1.65-3.69-3.69s1.65-3.69,3.69-3.69h61.49c2.04,0,3.69,1.65,3.69,3.69s-1.65,3.69-3.69,3.69Z"/>
      <path class="cls-4" d="M87.15,420.73c-2.04,0-3.69-1.65-3.69-3.69v-30.75c0-2.04,1.65-3.69,3.69-3.69s3.69,1.65,3.69,3.69v30.75c0,2.04-1.65,3.69-3.69,3.69Z"/>
    </g>
    <circle class="cls-4" cx="71.78" cy="401.67" r="6.15"/>
    <circle class="cls-1" cx="133.27" cy="463.16" r="6.15"/>
  </g>
</svg>