<?xml version="1.0" encoding="UTF-8"?>
<svg id="_图层_1" data-name="图层 1" xmlns="http://www.w3.org/2000/svg" viewBox="0 0 1024 1024">
  <defs>
    <style>
      .cls-1 {
        fill: #041d33;
      }

      .cls-2 {
        fill: #106fa1;
      }

      .cls-3 {
        fill: #f5cd1f;
      }

      .cls-4 {
        fill: #fff;
      }
    </style>
  </defs>
  <rect class="cls-1" x="88.13" y="88.13" width="847.73" height="847.73" rx="199.22" ry="199.22"/>
  <path class="cls-4" d="M697.81,206.37h-370.14c-61.41.06-111.18,49.83-111.24,111.24v391.44c.04,61.42,49.81,111.22,111.24,111.28h370.14c61.42-.08,111.18-49.86,111.24-111.28v-391.44c-.08-61.4-49.84-111.16-111.24-111.24ZM260.05,709.06v-391.44c.04-37.33,30.29-67.58,67.62-67.62h12.98v526.71h-12.98c-37.34-.04-67.6-30.31-67.62-67.65ZM765.35,709.06c-.02,37.34-30.28,67.61-67.62,67.65h-306.2V250h306.27c37.33.04,67.58,30.29,67.62,67.62l-.07,391.44Z"/>
  <path class="cls-2" d="M611.45,344.04l13.22,3,10.75,3.88,8.64,4.41,6.7,4.76,4.94,4.94,3.7,4.94,2.29,4.94,1.41,4.41.53,3.88.35,3-.18,1.94v78.44l-.71,9.17-1.94,8.11-3.17,6.7-3.88,5.64-4.41,4.58-4.94,3.7-5.11,2.82-5.11,2.12-4.94,1.41-4.41,1.06-3.88.53-3.17.35h-87.08l-10.22.71-8.64,2.12-7.4,3.17-5.99,4.05-4.76,4.76-3.88,5.11-3,5.29-2.12,5.46-1.41,5.11-1.06,4.76-.53,3.88-.35,3.17v44.95h-32.96l-3.17-.35-4.05-1.06-4.76-1.76-5.11-2.64-5.29-3.88-5.29-5.29-5.11-6.7-4.76-8.64-4.05-10.75-3-12.87-2.12-16.04-.71-18.16.88-17.98,2.29-15.34,3.53-12.69,4.76-10.4,5.29-8.46,5.82-6.52,6.17-4.76,6.17-3.53,5.82-2.29,5.29-1.41,4.76-.71,3.53-.18h2.29l.88.18h119.87v-12.16h-85.67l-.18-40.37-.35-5.46.71-4.94,1.59-4.58,2.47-4.05,3.7-3.88,4.58-3.35,5.64-3,6.52-2.64,7.4-2.12,8.46-1.76,9.52-1.59,10.4-.88,11.28-.53,12.34-.35,18.69.71s15.69,1.94,15.69,1.94ZM519.08,373.12l-3.35,4.94-1.23,5.99,1.23,5.99,3.35,4.94,4.94,3.17,5.99,1.41,5.99-1.41,4.94-3.17,3.35-4.94,1.23-5.99-1.41-6.17-3.35-4.76-4.94-3.17-5.99-1.41-5.99,1.41s-4.76,3.17-4.76,3.17Z"/>
  <path class="cls-3" d="M711.22,431.12l4.05.88,4.76,1.76,5.11,2.64,5.29,3.88,5.29,5.11,5.11,6.87,4.76,8.64,4.05,10.75,3.17,12.87,2.12,15.34.71,17.98-.88,17.98-2.29,15.34-3.53,12.69-4.76,10.4-5.29,8.46-5.82,6.7-6.17,4.94-6.17,3.53-5.82,2.29-5.29,1.41-4.76.71-3.53.35-2.29-.18h-120.75v11.99h85.67l.18,40.54.35,5.29-.71,4.94-1.59,4.58-2.47,4.23-3.7,3.7-4.58,3.53-5.64,3-6.52,2.47-7.4,2.12-8.46,1.94-9.34,1.41-10.4,1.06-11.28.53-12.34.18-18.69-.53-15.69-2.12-13.22-3-10.75-3.7-8.64-4.41-6.7-4.94-4.94-4.94-3.7-4.94-2.29-4.94-1.41-4.41-.53-3.7-.35-3,.18-1.94v-78.44l.71-9.34,1.94-7.93,3.17-6.7,3.88-5.64,4.41-4.76,4.94-3.53,5.11-3,5.11-2.12,4.76-1.41,4.41-.88,3.88-.53,3.17-.35,1.94-.18h85.85l10.22-.71,8.64-2.12,7.4-3,5.99-4.05,4.94-4.76,3.88-5.11,3-5.29,2.12-5.29,1.41-5.11,1.06-4.76.53-4.05.35-3.17v-44.6h30.67l2.12.18s2.29.35,2.29.35ZM616.21,640.54l-3.35,4.94-1.23,5.99,1.23,5.99,3.35,4.94,4.94,3.35,5.99,1.23,5.99-1.23,4.94-3.35,3.35-4.94,1.23-5.99-1.23-5.99-3.35-4.94-4.94-3.35-5.99-1.23-5.99,1.23-4.94,3.35Z"/>
</svg>