<?xml version="1.0" standalone="no"?><!DOCTYPE svg PUBLIC "-//W3C//DTD SVG 1.1//EN" "http://www.w3.org/Graphics/SVG/1.1/DTD/svg11.dtd"><svg t="1740217810262" class="icon" viewBox="0 0 1024 1024" version="1.1" xmlns="http://www.w3.org/2000/svg" p-id="9399" xmlns:xlink="http://www.w3.org/1999/xlink" width="32" height="32"><path d="M469.333333 216.32A298.88 298.88 0 0 0 216.32 469.333333H298.666667v85.333334H216.32A298.837333 298.837333 0 0 0 469.333333 807.68V725.333333h85.333334v82.346667A298.837333 298.837333 0 0 0 807.68 554.666667H725.333333v-85.333334h82.346667A298.837333 298.837333 0 0 0 554.666667 216.32V298.666667h-85.333334V216.32zM130.346667 469.333333A384.170667 384.170667 0 0 1 469.333333 130.346667V42.666667h85.333334v87.68A384.170667 384.170667 0 0 1 893.653333 469.333333H981.333333v85.333334h-87.68A384.170667 384.170667 0 0 1 554.666667 893.653333V981.333333h-85.333334v-87.68A384.170667 384.170667 0 0 1 130.346667 554.666667H42.666667v-85.333334h87.68zM597.333333 512a85.333333 85.333333 0 1 1-170.666666 0 85.333333 85.333333 0 0 1 170.666666 0z" fill="#000000" p-id="9400"></path></svg>